<?xml version="1.0" encoding="UTF-8" standalone="no"?>
<svg
   xmlns:dc="http://purl.org/dc/elements/1.1/"
   xmlns:cc="http://creativecommons.org/ns#"
   xmlns:rdf="http://www.w3.org/1999/02/22-rdf-syntax-ns#"
   xmlns:svg="http://www.w3.org/2000/svg"
   xmlns="http://www.w3.org/2000/svg"
   version="1.1"
   id="svg3710"
   viewBox="0 0 59.999997 40"
   height="11.288889mm"
   width="16.933332mm">
  <defs
     id="defs3712" />
  <metadata
     id="metadata3715">
    <rdf:RDF>
      <cc:Work
         rdf:about="">
        <dc:format>image/svg+xml</dc:format>
        <dc:type
           rdf:resource="http://purl.org/dc/dcmitype/StillImage" />
        <dc:title></dc:title>
      </cc:Work>
    </rdf:RDF>
  </metadata>
  <g
     transform="translate(-218.57143,-406.64792)"
     id="layer1">
    <g
       id="g3377"
       transform="translate(8.8214286,126.64792)">
      <path
         style="fill:#5565af"
         d="m 269.75,315 c 0,2.75 -2.25,5 -5,5 l -50,0 c -2.75,0 -5,-2.25 -5,-5 l 0,-30 c 0,-2.75 2.25,-5 5,-5 l 50,0 c 2.75,0 5,2.25 5,5 l 0,30 z"
         id="path3379" />
      <path
         style="opacity:0.03999999;fill:#ffffff"
         enable-background="new    "
         d="m 268.281,281.469 c 0.906,0.906 1.469,2.156 1.469,3.531 l 0,15 0,15 c 0,1.375 -0.562,2.625 -1.469,3.531 -0.907,0.906 -2.156,1.469 -3.531,1.469 l -25,0 -25,0 c -1.375,0 -2.625,-0.562 -3.531,-1.469 l 57.062,-37.062 z"
         id="path3381" />
      <path
         style="fill:#56b1d9"
         d="M 239.75,280"
         id="path3383" />
      <g
         id="g3385">
        <path
           style="fill:#ea564b"
           d="m 239.75,293.4 c -1.833,-2.08 -4.51,-3.4 -7.5,-3.4 -5.522,0 -10,4.477 -10,10 0,5.521 4.478,10 10,10 2.99,0 5.667,-1.32 7.5,-3.401 -1.552,-1.762 -2.5,-4.065 -2.5,-6.599 0,-2.534 0.948,-4.838 2.5,-6.6 z"
           id="path3387" />
        <path
           style="fill:#ea564b"
           d="m 239.75,293.4 c -1.552,1.762 -2.5,4.067 -2.5,6.6 0,2.533 0.948,4.837 2.5,6.599 1.552,-1.762 2.5,-4.065 2.5,-6.599 0,-2.534 -0.948,-4.838 -2.5,-6.6 z"
           id="path3389" />
      </g>
      <path
         style="fill:#e9d419"
         d="m 247.25,290 c -2.99,0 -5.667,1.32 -7.5,3.4 -0.433,0.492 -0.812,1.03 -1.144,1.6 l 2.288,0 c 0.364,0.625 0.647,1.299 0.871,2 l -4.044,0 c -0.203,0.643 -0.35,1.309 -0.419,2 l 4.879,0 c 0.034,0.33 0.068,0.66 0.068,1 0,0.338 -0.02,0.671 -0.053,1 l -4.895,0 c 0.069,0.691 0.216,1.357 0.419,2 l 4.056,0 c -0.223,0.704 -0.522,1.372 -0.886,2 l -2.285,0 c 0.331,0.568 0.711,1.107 1.144,1.599 1.833,2.081 4.51,3.401 7.5,3.401 5.522,0 10,-4.479 10,-10 10e-4,-5.523 -4.477,-10 -9.999,-10 z"
         id="path3391" />
      <g
         id="g3393">
        <path
           style="fill:#7684b7"
           d="m 264.75,281 c 2.206,0 4,1.794 4,4 l 0,30 c 0,2.206 -1.794,4 -4,4 l -50,0 c -2.206,0 -4,-1.794 -4,-4 l 0,-30 c 0,-2.206 1.794,-4 4,-4 l 50,0 m 0,-1 -50,0 c -2.75,0 -5,2.25 -5,5 l 0,30 c 0,2.75 2.25,5 5,5 l 50,0 c 2.75,0 5,-2.25 5,-5 l 0,-30 c 0,-2.75 -2.25,-5 -5,-5 l 0,0 z"
           id="path3395" />
      </g>
    </g>
  </g>
</svg>
