<?xml version="1.0" encoding="UTF-8" standalone="no"?>
<svg
   xmlns:dc="http://purl.org/dc/elements/1.1/"
   xmlns:cc="http://creativecommons.org/ns#"
   xmlns:rdf="http://www.w3.org/1999/02/22-rdf-syntax-ns#"
   xmlns:svg="http://www.w3.org/2000/svg"
   xmlns="http://www.w3.org/2000/svg"
   version="1.1"
   id="svg3654"
   viewBox="0 0 59.999997 40"
   height="11.288889mm"
   width="16.933332mm">
  <defs
     id="defs3656" />
  <metadata
     id="metadata3659">
    <rdf:RDF>
      <cc:Work
         rdf:about="">
        <dc:format>image/svg+xml</dc:format>
        <dc:type
           rdf:resource="http://purl.org/dc/dcmitype/StillImage" />
        <dc:title></dc:title>
      </cc:Work>
    </rdf:RDF>
  </metadata>
  <g
     transform="translate(-127.14286,-160.93364)"
     id="layer1">
    <g
       id="g3479"
       transform="translate(-2.6071414,-119.06636)">
      <path
         style="fill:#f3f4f4"
         d="m 189.75,315 c 0,2.75 -2.25,5 -5,5 l -50,0 c -2.75,0 -5,-2.25 -5,-5 l 0,-30 c 0,-2.75 2.25,-5 5,-5 l 50,0 c 2.75,0 5,2.25 5,5 l 0,30 z"
         id="path3481" />
      <path
         style="fill:#5565af"
         d="m 130.75,290 0,-5 c 0,-2.75 2.25,-5 5,-5 l 48,0 c 2.75,0 5,2.25 5,5 l 0,5"
         id="path3483" />
      <path
         style="fill:#e6a124"
         d="m 188.75,310 0,5 c 0,2.75 -2.25,4 -5,4 l -48,0 c -2.75,0 -5,-1.25 -5,-4 l 0,-5"
         id="path3485" />
      <g
         id="g3487">
        <path
           style="fill:#5565af"
           d="m 147.137,303.379 c 0.406,-1.15 0.691,-1.887 0.859,-2.211 l 3.375,-6.875 2.469,0 -5.844,11.422 -2.609,0 -0.992,-11.422 2.305,0 0.398,6.875 c 0.02,0.234 0.031,0.582 0.031,1.039 -0.012,0.537 -0.027,0.928 -0.047,1.172 l 0.055,0 z"
           id="path3489" />
        <path
           style="fill:#5565af"
           d="m 152.809,305.715 2.438,-11.422 2.383,0 -2.438,11.422 -2.383,0 z"
           id="path3491" />
        <path
           style="fill:#5565af"
           d="m 164.934,302.34 c 0,1.09 -0.387,1.949 -1.156,2.582 -0.771,0.633 -1.816,0.949 -3.133,0.949 -1.152,0 -2.078,-0.234 -2.781,-0.703 l 0,-2.141 c 1.004,0.562 1.938,0.844 2.797,0.844 0.582,0 1.039,-0.109 1.367,-0.332 0.328,-0.221 0.492,-0.523 0.492,-0.91 0,-0.223 -0.035,-0.42 -0.105,-0.59 -0.07,-0.168 -0.172,-0.326 -0.301,-0.473 -0.131,-0.146 -0.453,-0.41 -0.969,-0.797 -0.719,-0.517 -1.225,-1.025 -1.516,-1.532 -0.293,-0.505 -0.438,-1.049 -0.438,-1.633 0,-0.672 0.16,-1.271 0.484,-1.801 0.322,-0.528 0.781,-0.939 1.379,-1.234 0.596,-0.294 1.281,-0.441 2.059,-0.441 1.129,0 2.164,0.258 3.102,0.773 l -0.852,1.82 c -0.812,-0.385 -1.562,-0.578 -2.25,-0.578 -0.434,0 -0.787,0.117 -1.062,0.352 -0.277,0.234 -0.414,0.545 -0.414,0.93 0,0.318 0.086,0.596 0.258,0.832 0.172,0.237 0.557,0.551 1.156,0.941 0.629,0.417 1.102,0.877 1.414,1.379 0.312,0.505 0.469,1.091 0.469,1.763 z"
           id="path3493" />
        <path
           style="fill:#5565af"
           d="m 172.598,302.996 -3.695,0 -1.344,2.719 -2.5,0 5.984,-11.469 2.914,0 1.148,11.469 -2.32,0 -0.187,-2.719 z m -0.118,-2.031 -0.203,-2.734 c -0.053,-0.682 -0.078,-1.341 -0.078,-1.977 l 0,-0.281 c -0.23,0.625 -0.514,1.287 -0.852,1.984 l -1.469,3.008 2.602,0 z"
           id="path3495" />
      </g>
      <path
         style="fill:#ffffff"
         d="M 159.75,280"
         id="path3497" />
      <path
         style="opacity:0.03999999;fill:#ffffff"
         enable-background="new    "
         d="m 188.281,281.469 c 0.906,0.906 1.469,2.156 1.469,3.531 l 0,15 0,15 c 0,1.375 -0.562,2.625 -1.469,3.531 -0.907,0.906 -2.156,1.469 -3.531,1.469 l -25,0 -25,0 c -1.375,0 -2.625,-0.562 -3.531,-1.469 l 57.062,-37.062 z"
         id="path3499" />
      <g
         id="g3501">
        <path
           style="fill:#f8f8f9"
           d="m 184.75,281 c 2.206,0 4,1.794 4,4 l 0,30 c 0,2.206 -1.794,4 -4,4 l -50,0 c -2.206,0 -4,-1.794 -4,-4 l 0,-30 c 0,-2.206 1.794,-4 4,-4 l 50,0 m 0,-1 -50,0 c -2.75,0 -5,2.25 -5,5 l 0,30 c 0,2.75 2.25,5 5,5 l 50,0 c 2.75,0 5,-2.25 5,-5 l 0,-30 c 0,-2.75 -2.25,-5 -5,-5 l 0,0 z"
           id="path3503" />
      </g>
    </g>
  </g>
</svg>
